<svg width="660" height="660" version="1.1" xmlns="http://www.w3.org/2000/svg">
 <path d="m362.45 597.73c-5.5795-1.8072-11.212-6.1719-13.914-10.782-0.89767-1.5318-1.7769-2.785-1.9538-2.785-0.17695 0-1.1826 0.61299-2.2348 1.3622-4.5594 3.2466-12.253 4.0236-18.117 1.8296-6.0866-2.2773-11.645-8.531-12.909-14.525l-0.42516-2.0152-2.9591 0.89056c-3.7944 1.1419-6.4249 1.1258-9.7856-0.0599-5.4236-1.9135-9.7451-6.4768-11.053-11.671l-0.68633-2.7257-4.9138 4.974c-8.1471 8.247-16.04 11.407-27.085 10.842-12.563-0.64193-22.761-6.912-29.166-17.931l-1.7452-3.0027-4.1452 3.1375c-8.9146 6.7474-20.758 7.8017-30.752 2.7375-3.9234-1.9881-9.6122-7.2909-11.768-10.969-1.9428-3.3151-4.0409-9.7965-4.0409-12.483 0-1.5821-0.20694-1.86-1.1232-1.5084-12.171 4.6705-26.657-1.2837-32.656-13.423-2.5198-5.0986-3.4484-11.487-2.354-16.195l0.6172-2.6552-5.2164-0.27514c-9.0742-0.47862-16.717-5.353-20.688-13.194-1.7234-3.4033-1.8802-4.2757-1.8802-10.461 0-6.4031 0.10671-6.9424 2.0886-10.557 1.1487-2.0951 2.0886-4.0008 2.0886-4.2347 0-0.23394-0.73421-0.75989-1.6316-1.1688-2.9802-1.3579-7.8372-6.5054-9.3687-9.9292-1.1628-2.5996-1.5003-4.503-1.5055-8.4918-8e-3 -6.022 1.2402-9.2973 5.2675-13.824l2.5794-2.8995-2.4381-2.7474c-4.3437-4.8948-5.5018-10.898-3.2472-16.831 1.0675-2.8094 1.0966-3.2201 0.2281-3.2201-0.54751 0-3.1948-1.0555-5.8828-2.3456-9.6133-4.6138-17.36-14.667-19.387-25.159-1.545-7.9981 0.25594-17.809 4.5405-24.736 1.2824-2.073 1.6451-3.1508 1.1115-3.3031-6.8421-1.9523-13.524-6.4756-16.93-11.46-3.8662-5.6587-5.0367-9.6384-5.054-17.184-0.01447-6.3118 0.12106-7.0361 2.0975-11.21 2.4471-5.1677 5.4837-9.0964 8.751-11.322 1.2659-0.8622 2.3035-1.7286 2.3059-1.9253 0.0024-0.19673-1.2935-1.7514-2.8799-3.455-3.6699-3.9409-5.9833-8.674-6.8777-14.072-1.9522-11.781 5.359-23.99 16.992-28.374 3.2399-1.2212 3.5806-1.6657 2.1722-2.8345-0.48422-0.40186-1.7044-2.5339-2.7116-4.7379-1.5478-3.3871-1.8342-4.8547-1.8509-9.4833-0.01761-4.898 0.20021-5.9227 2.0633-9.7072 2.4853-5.0484 7.1252-9.6336 12.013-11.871 3.8037-1.7414 11.778-2.8309 12.475-1.7044 0.23114 0.37344 0.43849-1.3896 0.46078-3.9178 0.0501-5.6792 1.596-9.415 5.7211-13.825 3.9511-4.2241 8.2837-6.108 14.16-6.1575 2.4742-0.0208 5.5461 0.2043 6.8264 0.50027 2.2809 0.52725 2.3362 0.49387 2.7391-1.6538 0.96494-5.1436 6.9125-11.271 12.032-12.395 1.6482-0.362 1.8058-0.602 1.3947-2.1244-0.25487-0.94398-0.45317-4.1745-0.44067-7.1788 0.0463-11.129 5.8665-22.097 14.953-28.181 6.4523-4.3196 13.353-6.5224 20.434-6.5224 3.1413 0 3.5185-0.13553 3.1304-1.1246-0.97291-2.4797-1.5942-8.3744-1.2022-11.407 1.3508-10.451 7.1793-18.538 16.782-23.284 4.7909-2.3678 5.0598-2.4214 12.003-2.3942 5.6349 0.02213 7.7828 0.30175 10.395 1.3532l3.2924 1.3254 0.73602-3.2812c0.40481-1.8047 1.6118-4.8129 2.6822-6.685 8.0021-13.996 25.521-17.704 38.527-8.1562 1.7948 1.3175 3.3499 2.2885 3.4559 2.1579 0.10596-0.13066 1.012-1.7669 2.0133-3.6362 4.9279-9.1989 16.261-14.197 26.581-11.721 4.6778 1.1222 10.292 4.9747 13.234 9.0811 1.3665 1.9073 2.7013 3.7203 2.9661 4.0289 0.26487 0.30855 1.3924-0.08754 2.5056-0.88021 4.1266-2.9384 10.956-3.9847 16.391-2.5112 6.3542 1.7229 12.366 7.5645 14.17 13.768l0.96654 3.3248 3.3569-0.88759c8.6787-2.2947 17.745 2.9381 20.391 11.769l0.78543 2.6215 4.9072-4.9472c7.3704-7.4303 15.383-10.906 25.176-10.922 11.953-0.01882 22.916 6.0028 29.593 16.254 1.3362 2.0514 2.5321 4.0379 2.6576 4.4144s2.1687-0.78422 4.5404-2.5794c6.9899-5.2907 16.913-7.3713 24.953-5.2324 10.571 2.8123 19.351 12.441 21.296 23.355 0.38681 2.1704 0.73718 4.0068 0.7786 4.0808 0.0415 0.074 1.7982-0.31954 3.9038-0.87444 11.569-3.0487 24.045 3.0008 29.673 14.389 2.1143 4.2779 2.3604 5.308 2.3944 10.019 0.0208 2.8881-0.18533 6.1187-0.4581 7.179l-0.49594 1.928 5.0002 0.0276c4.2238 0.0233 5.6679 0.34005 9.3007 2.04 5.2635 2.4631 9.3222 6.4037 11.806 11.463 1.674 3.4095 1.876 4.4797 1.876 9.9396 0 5.6632-0.16313 6.45-2.1911 10.57-1.5018 3.0505-1.9454 4.5328-1.41 4.7112 0.42964 0.14321 1.9857 1.1791 3.4579 2.302 6.1689 4.7052 9.3175 11.519 8.5807 18.568-0.50266 4.8092-2.0909 8.3483-5.4325 12.105l-2.6354 2.9632 1.4983 1.4076c4.5538 4.2781 6.3985 11.646 4.3987 17.57-0.90261 2.6736-1.029 3.6942-0.45735 3.6942 0.4344 0 3.1835 1.1981 6.1091 2.6624 18.493 9.256 25.196 31.678 14.762 49.375-1.7342 2.9413-1.8165 3.3118-0.8096 3.6478 8.4897 2.8325 15.032 8.234 18.506 15.28 6.002 12.171 3.8166 24.638-5.998 34.214l-4.1731 4.0717 3.0249 3.2339c1.6637 1.7786 3.8 4.8875 4.7473 6.9086 1.5268 3.2576 1.7223 4.444 1.7223 10.452 0 6.5432-0.0839 6.9475-2.4243 11.686-2.879 5.8293-6.6054 9.4318-12.678 12.256-2.2975 1.0686-4.2606 2.0033-4.3626 2.0771-0.10195 0.0739 0.6855 1.545 1.7499 3.2693 5.7403 9.299 4.6211 20.339-2.8837 28.445-4.6644 5.0381-9.7646 7.3983-16.072 7.4372l-4.5378 0.028-0.0399 3.9152c-0.0778 7.6388-5.1133 15.191-12.3 18.447-3.2002 1.45-10.712 1.9122-14.649 0.90147-1.954-0.50164-2.0217-0.44461-2.7082 2.2817-0.38725 1.5379-1.5779 4.0025-2.6459 5.4768-1.9631 2.71-7.7385 6.5558-9.8617 6.5669-0.99072 5e-3 -1.0851 0.34657-0.66766 2.416 0.74987 3.7176 0.42796 10.544-0.70597 14.97-3.8775 15.135-18.145 26.32-33.573 26.32-4.4529 0-4.7906 0.0901-3.9834 1.0627 0.63626 0.76666 0.882 3.1484 0.882 8.5484 0 7.3763-0.0358 7.5581-2.4494 12.442-3.1525 6.3786-7.3447 10.577-13.696 13.716-4.4558 2.2022-5.4971 2.4532-11.095 2.6749-5.0327 0.19931-6.9177-6e-3 -10.174-1.1055-2.198-0.74256-4.1218-1.3501-4.2753-1.3501s-0.88472 1.9942-1.625 4.4316c-5.3382 17.575-26.381 24.27-41.061 13.065-1.5567-1.1882-2.9022-2.0683-2.99-1.9558-0.0879 0.11254-0.97901 1.734-1.9804 3.6032-2.2991 4.2918-6.43 8.1211-11.117 10.305-2.9075 1.355-4.7549 1.7291-9.1096 1.845-3.0044 0.08-6.1855-0.0888-7.0691-0.37499zm-8.5664-41.562c1.1872-0.90555 3.8173-2.4175 5.8445-3.36 3.082-1.4328 4.5808-1.7135 9.1484-1.7135 4.6257 0 6.053 0.27431 9.3165 1.7905 2.1197 0.98478 4.5044 2.4015 5.2993 3.1483 1.6762 1.5747 1.5579 1.6541 2.983-2.0032 2.6216-6.7283 9.0974-12.911 15.981-15.257 4.2895-1.462 12.581-1.4842 16.387-0.0438l2.7313 1.0338v-1.7828c0-4.8936 3.4268-12.395 7.8584-17.203 4.5978-4.9881 13.158-9.2337 18.616-9.2337 1.5978 0 1.8566-0.19808 1.4691-1.1246-3.0289-7.242-3.9097-15.93-2.2965-22.653 2.0084-8.3712 8.3088-17.247 15.534-21.883 3.0731-1.972 3.1672-2.1174 2.2142-3.4232-5.6093-7.6856-6.9788-11.488-6.9722-19.358 5e-3 -6.2414 1.4416-11.255 4.5112-15.745l1.5376-2.2493-1.7957-1.2853c-8.7753-6.2811-13.643-17.343-11.786-26.783 0.41913-2.1304 0.9105-4.2602 1.0919-4.7331 0.22418-0.58419-0.56252-1.0781-2.4551-1.5414-11.026-2.6992-18.456-11.668-19.053-23.001l-0.27892-5.2885-2.9975 0.0675c-9.4172 0.21216-14.949-3.922-19.67-14.699-0.035-0.08-1.637 0.4536-3.56 1.1857-5.0759 1.9326-10.932 1.518-15.118-1.0704-3.5385-2.1877-7.2266-6.6532-7.78-9.4199-0.28112-1.4056-0.62968-1.7596-1.4106-1.4325-1.892 0.79229-6.7969 1.0373-8.4235 0.42069-1.5273-0.57891-1.7112-0.378-3.9234 4.2845-1.2766 2.6906-3.5616 6.2853-5.078 7.9884l-2.757 3.0964 2.291 1.8884c3.7464 3.0881 5.1385 8.4324 3.3637 12.914-0.32815 0.82859 0.28139 1.3852 2.6766 2.4444 10.409 4.603 13.72 17.2 6.9366 26.394l-1.6048 2.1752 1.7768 0.89913c3.0608 1.5489 7.1059 5.9547 8.5988 9.3656 3.4672 7.9215 0.55302 18.311-6.5088 23.204l-2.4755 1.7155 2.7337 3.7134c7.3972 10.048 6.3453 23.939-2.4248 32.023-2.5572 2.3571-7.4866 5.1761-10.746 6.1453-0.9182 0.27304-0.86701 0.7901 0.4654 4.7005 5.5203 16.201-5.2895 32.793-22.902 35.151l-5.13 0.68685v2.9587c0 3.3449-1.4454 8.7141-3.3551 12.463-1.7546 3.4446-7.2539 9.1349-10.774 11.148-1.5955 0.91256-3.0162 1.7471-3.1571 1.8545-0.33574 0.25602 2.7152 6.0024 3.1869 6.0024 0.19931 0 1.6458-0.64496 3.2144-1.4332 4.2821-2.152 11.879-2.0526 16.669 0.21797 3.2182 1.5256 8.9971 6.5155 8.9971 7.7686 0 0.86911 0.74979 0.58665 3.0013-1.1306zm-120.4-43.024c7.0392-7.0392 18.197-11.217 27.425-10.268 4.9294 0.50701 10.792 2.3432 14.671 4.5952 1.5299 0.88822 2.8693 1.5172 2.9764 1.3976 0.10708-0.11953 1.1242-2.0713 2.2602-4.3372 4.9978-9.9686 16.485-16.709 27.299-16.019l3.4019 0.2171 0.76773-4.1731c1.9282-10.481 9.5018-18.903 19.501-21.686 2.9163-0.81167 3.6337-1.2544 3.318-2.0477-2.179-5.4754-1.7294-13.368 1.0956-19.228 1.8722-3.8842 7.1213-9.089 10.984-10.892 1.6789-0.78344 3.0526-1.5738 3.0526-1.7562 0-0.1825-0.71181-1.4101-1.5818-2.728-1.9727-2.9882-3.1733-8.4065-2.6443-11.934 0.50757-3.3847 2.978-8.7227 4.7777-10.323 1.8437-1.6399 1.7348-2.3918-0.56735-3.9169-1.067-0.70692-2.6856-2.3547-3.597-3.6618-4.7292-6.783-4.5278-15.028 0.52077-21.322 1.752-2.1845 1.8692-2.5636 0.95095-3.0775-1.6791-0.93968-4.2855-5.9269-4.2855-8.2002 0-2.0809-0.01-2.087-2.5719-1.6541-3.2545 0.54985-10.931 0.56279-13.391 0.0226-1.8129-0.39819-1.89-0.31578-2.3073 2.4668-0.72566 4.839-5.4062 10.042-9.0336 10.042-1.3312 0-1.4047 0.26968-1.3588 4.9805 0.0366 3.7584-0.27883 5.692-1.2855 7.8796-2.8642 6.2244-9.1772 10.258-16.072 10.269l-3.9266 6e-3 -0.35983 3.4863c-1.252 12.13-12.474 20.3-23.874 17.38-2.1396-0.54813-4.1675-1.2739-4.5064-1.6129-1.2124-1.2124-2.0195-0.5724-2.8576 2.2662-2.0099 6.807-8.9558 13.356-16.412 15.472-7.284 2.0682-16.442 0.0162-22.523-5.0467l-1.9102-1.5903-3.6439 3.7822c-6.2132 6.4491-14.924 9.4926-23.383 8.1705-7.576-1.1841-14.531-5.5238-18.385-11.472-2.2286-3.4393-2.7842-3.7033-4.8094-2.2847-2.7565 1.9307-9.1826 3.5815-13.942 3.5815-7.4978 0-14.023-2.4202-19.507-7.2346l-2.2885-2.0093-1.128 1.4955c-1.1201 1.485-1.0978 1.5253 3.1759 5.7466 3.1469 3.1083 4.5905 5.1026 5.37 7.4182 1.4824 4.4037 1.3678 10.438-0.28197 14.847-0.74143 1.9817-1.2475 3.6668-1.1246 3.7447 0.12289 0.0779 1.7281 0.82405 3.5672 1.658 8.5166 3.8621 14.522 14.463 13.378 23.616l-0.43239 3.4607 4.0825-0.41826c4.8225-0.49408 10.615 0.77896 15.404 3.3854 6.1224 3.3322 11.714 11.177 12.582 17.652 0.38478 2.8688-0.12071 2.7996 6.5679 0.89826 6.6952-1.9032 14.848-0.87477 21.42 2.7021 1.749 0.95193 4.9518 3.6779 7.1172 6.0577 2.1655 2.3798 3.9827 4.3388 4.0384 4.3532 0.0556 0.0145 1.9838-1.8564 4.2849-4.1574zm284.76-62.206c1.1848-9.483 8.9053-17.313 17.994-18.25l3.2563-0.33565-0.2154-5.5503c-0.17395-4.482 0.0512-6.2611 1.17-9.2434 1.8113-4.8283 6.5863-10.041 11.402-12.447 2.0403-1.0195 3.8223-1.918 3.9599-1.9968 0.13766-0.0788-0.53095-1.1674-1.4858-2.4193-8.283-10.86-7.0062-26.38 2.9068-35.336l2.5448-2.2991-3.7714-3.4917c-3.9362-3.6443-7.1797-8.9152-8.4697-13.764-1.3133-4.9365-0.94809-12.049 0.87651-17.071 0.89426-2.4612 1.5671-4.5265 1.4953-4.5895-0.0719-0.063-2.0104-0.58452-4.3079-1.159-15.973-3.9938-27.634-18.11-27.634-33.451l1e-4 -3.8815-5.5173 0.22886c-6.0255 0.24994-9.6965-0.49366-14.692-2.9759-4.3154-2.1445-10.137-7.8401-12.351-12.083-1.3084-2.5081-2.0942-3.3808-2.7863-3.0943-6.1194 2.5325-8.2314 2.9459-13.817 2.704-4.799-0.20778-6.507-0.58903-10.031-2.239-2.3358-1.0937-5.6464-3.3295-7.3567-4.9683l-3.1098-2.9797-2.9256 2.8618c-4.4759 4.3782-8.9532 6.3419-15.221 6.6758-5.9505 0.31694-9.7437-0.65607-14.625-3.7515-1.6541-1.049-3.1106-1.9072-3.2368-1.9072-0.12614 0-0.3987 0.67478-0.60569 1.4995-0.65107 2.594-5.4127 7.3371-9.2649 9.2288-3.2048 1.5738-4.3883 1.7983-9.2956 1.7639l-5.6232-0.0395v1.6923c0 5.0085-3.7982 10.982-8.8837 13.972-2.6597 1.5635-3.6518 1.7666-8.6284 1.7666-5.0045 0-5.6232 0.12838-5.6232 1.1669 0 1.432-1.0523 3.5408-2.6389 5.2883-1.1726 1.2915-1.1441 1.3793 1.6677 5.1386 1.5734 2.1035 3.4962 5.5609 4.2729 7.6831 0.77669 2.1222 1.4552 3.9259 1.5078 4.0082 0.0526 0.0823 1.0886-0.14161 2.3023-0.49763 3.3787-0.99107 6.8438-0.13512 9.625 2.3775l2.4492 2.2127 3.0993-2.19c3.886-2.7459 6.5772-3.6606 10.746-3.6526 5.9628 0.0114 12.333 4.0786 15.205 9.7077 0.70044 1.373 1.3856 2.4963 1.5225 2.4963 0.13692 0 1.7818-0.79528 3.6553-1.7673 2.8458-1.4764 4.204-1.7651 8.2531-1.754 5.5006 0.0151 9.1683 1.3519 13.043 4.754 3.1724 2.7854 6.2633 9.0802 6.2633 12.756 0 2.459 0.15701 2.7974 1.1246 2.4235 10.722-4.1427 24.385 1.8712 29.619 13.037 1.4999 3.1996 1.714 4.4746 1.745 10.391l0.0353 6.744 3.4993 0.49143c8.1774 1.1484 16.115 7.3698 20.079 15.738 1.8881 3.9858 2.0574 4.8723 2.0574 10.77 0 5.8941-0.17 6.7854-2.0522 10.759l-2.0522 4.3321 2.7657 1.6208c1.5212 0.89145 4.3441 3.2799 6.2732 5.3076 7.048 7.4082 9.7502 17.184 7.3294 26.517-0.68601 2.6446-0.72559 3.6267-0.16066 3.9861 1.6198 1.0304 2.2251 0.36091 2.6342-2.9136zm-296.82-55.368c1.3841-2.1124 6.9153-5.6839 10.835-6.9965 6.4186-2.1491 14.999-0.96312 20.179 2.7891 3.2132 2.3276 3.7155 2.3796 4.2036 0.43478 0.6491-2.5862 5.4115-7.3368 9.2258-9.203 3.7763-1.8476 9.343-2.4109 13.191-1.3349 1.7316 0.48425 1.7673 0.43816 1.7673-2.2838 0-3.4195 2.559-8.792 5.277-11.079 4.1975-3.532 6.8749-4.4767 12.557-4.4306 4.9497 0.0402 5.302-0.0456 5.3042-1.2899 3e-3 -1.856 2.1256-5.1444 4.41-6.8334l1.9186-1.4185-3.2223-3.872c-1.7723-2.1296-3.9832-5.4234-4.9132-7.3196-1.2498-2.5483-1.9474-3.3368-2.6744-3.0232-5.09 2.1959-9.3376 1.6654-13.022-1.6266l-2.0209-1.8056-2.9315 2.0694c-5.2711 3.721-10.472 4.5041-16.43 2.4739-3.6037-1.2279-8.2785-5.5465-9.7083-8.9685-0.52085-1.2466-1.1516-2.1594-1.4018-2.0285-5.8017 3.0356-7.0494 3.385-12.022 3.3669-4.301-0.0157-5.6793-0.29953-8.4337-1.7369-5.9679-3.1142-10.524-9.916-10.524-15.71 0-1.1741-0.19321-2.1348-0.42935-2.1348s-2.2186 0.31159-4.4055 0.69242c-10.405 1.812-21.21-4.0493-25.897-14.048-1.517-3.2366-1.7223-4.46-1.7223-10.262 0-3.6231-0.0192-6.5873-0.0426-6.5872-0.0235 1.7e-4 -1.7451-0.31441-3.8259-0.69907-8.4963-1.5706-16.088-7.4079-19.785-15.212-1.9023-4.0158-2.0521-4.8243-2.0521-11.08 0-6.2584 0.14916-7.0627 2.0564-11.089l2.0564-4.3412-2.6506-1.3522c-3.5174-1.7944-8.7543-7.1756-10.92-11.221-3.5408-6.6134-4.5512-14.126-2.8051-20.858 0.5012-1.9322 0.86269-3.5498 0.80331-3.5948-0.0594-0.0449-0.72426-0.27079-1.4775-0.50189-1.2476-0.38282-1.4077-0.11503-1.798 3.009-1.1862 9.4941-9.1372 17.585-18.005 18.323l-3.2481 0.27008v6.5202c0 5.8836-0.17658 6.8652-1.8088 10.055-2.3822 4.655-6.8207 9.1093-10.936 10.975-1.8268 0.8282-3.4273 1.575-3.5568 1.6595-0.12949 0.0845 0.95764 1.9404 2.4158 4.124 3.5761 5.3553 4.8029 9.7977 4.4079 15.962-0.44199 6.8972-2.3951 11.53-6.8662 16.287l-3.6803 3.9155 3.9669 3.9038c2.6282 2.5864 4.7058 5.4219 6.1563 8.4023 2.1232 4.3627 2.1889 4.7315 2.1742 12.21-0.013 6.6196-0.22009 8.157-1.4621 10.855-0.79582 1.7289-1.3245 3.266-1.1748 3.4156 0.14967 0.14966 2.0937 0.69705 4.32 1.2164 13.092 3.0543 23.469 13.456 26.577 26.64 0.53711 2.2788 0.98104 5.5892 0.98652 7.3565l0.01 3.2132h6.908c6.657 0 7.0915 0.0876 11.956 2.4101 5.8026 2.7706 11.384 7.9915 13.817 12.925 1.1578 2.3478 1.7607 2.9629 2.5706 2.6224 11.983-5.0378 23.503-3.1602 31.549 5.1424 1.2181 1.2569 2.4405 2.2852 2.7164 2.2852s0.96848-0.71229 1.5389-1.5829zm71.41-75.959c1.1259-0.20551 2.912-0.0721 3.9691 0.29637l1.9221 0.67004 1.3386-4.4071c0.73623-2.4239 2.6357-6.3414 4.2211-8.7056l2.8825-4.2986-1.8927-2.1557c-2.6468-3.0145-3.2479-7.1124-1.6491-11.242 0.29826-0.77035-0.32095-1.2998-2.4881-2.1274-3.7224-1.4216-7.8308-5.4327-9.4792-9.2547-1.0224-2.3706-1.2542-4.071-1.0835-7.9476 0.19126-4.3423 0.46652-5.2854 2.3033-7.8912 1.1473-1.6277 2.0797-3.168 2.0719-3.4227-8e-3 -0.25476-1.3225-1.3308-2.9216-2.3911-4.6371-3.0748-8.632-10.362-8.632-15.745 0-5.6931 4.231-13.151 9.2588-16.32 1.6233-1.0233 2.9515-1.9802 2.9515-2.1265 0-0.14633-0.25771-0.10679-0.57268 0.0879-0.88031 0.54406-5.1515-4.5309-6.5405-7.7714-5.9268-13.827 1.2067-28.432 16.224-33.216 0.99309-0.31641 0.97793-0.60518-0.19357-3.6883-3.7876-9.9682-1.172-21.242 6.6428-28.632 1.921-1.8166 4.6917-3.9146 6.1572-4.6623 3.3678-1.7181 9.3121-3.2812 12.478-3.2812h2.4356v-2.7569c0-3.8276 1.6732-9.8685 3.6837-13.3 2.3618-4.0309 6.9867-8.8105 10.432-10.782 1.6027-0.91679 3.0293-1.7548 3.1702-1.8622 0.14088-0.10742-0.4375-1.5047-1.2853-3.105-1.1034-2.0828-1.8154-2.7886-2.5054-2.4837-4.9399 2.183-8.3283 2.9161-12.21 2.6419-6.0919-0.43022-11.181-3.2709-15.346-8.5656l-1.4013-1.7814-1.748 1.4174c-0.96143 0.77959-3.5711 2.3101-5.7992 3.4011-7.4639 3.6548-15.778 3.0454-22.996-1.6853l-3.2695-2.1429-1.0894 2.9898c-4.3055 11.817-18.224 19.066-30.546 15.91-2.2612-0.5793-4.1687-0.9759-4.2388-0.88134-0.0702 0.0945-0.45024 1.8303-0.84461 3.8572-2.0445 10.508-9.862 19.223-20.102 22.41-2.1516 0.66965-4.7538 1.2175-5.7826 1.2175-2.2351 0-2.237 0.0163-0.50154 4.4985 1.8892 4.8794 2.3574 14.353 0.97579 19.746-2.1971 8.5761-8.065 16.807-15.285 21.44-1.7192 1.1032-3.1258 2.1372-3.1258 2.2978 0 0.16062 0.85362 1.3595 1.8969 2.6643 6.8293 8.5406 7.8559 20.882 2.6025 31.288-1.8221 3.609-2.3518 5.2181-1.7804 5.4086 0.44739 0.14912 2.4834 1.864 4.5246 3.811 7.7229 7.3664 10.206 16.925 7.1603 27.568-0.27076 0.9463-0.11182 1.5194 0.46473 1.6756 8.1716 2.2147 12.61 4.9126 16.293 9.9035 2.8003 3.7947 4.8264 10.059 4.8264 14.921v3.7037l4.7024 0.30178c7.8263 0.50226 14.303 5.0584 16.916 11.9 1.1628 3.0447 0.97919 3.0056 5.6946 1.2116 8.3493-3.1766 18.53 1.6782 21.658 10.327 0.64318 1.7787 1.0527 2.1342 2.102 1.8251 0.71679-0.21118 2.2244-0.55211 3.3503-0.75762zm42.468-28.735c1.5088 0.0436 3.8386 0.25437 5.1772 0.46843 2.316 0.37034 2.4722 0.28302 3.2268-1.8037 1.0078-2.7871 4.5934-5.9574 7.315-6.4676l2.1024-0.39418v-5.2607c0-6.1717 1.1111-8.9672 5.1858-13.047 3.2511-3.2554 7.9093-4.951 12.755-4.6426l3.4409 0.21897 0.33723-3.7315c0.68483-7.5778 6.0455-14.635 12.828-16.888 4.398-1.4608 9.9739-1.3173 13.752 0.35386 1.6614 0.73491 3.2107 1.1128 3.4429 0.83984 0.23225-0.27299 0.91993-1.8495 1.5282-3.5033 2.1995-5.9804 7.4211-11.154 13.959-13.832 1.9954-0.81723 4.5122-1.1551 8.6043-1.1551 4.8875 0 6.3361 0.25905 9.3477 1.6716 1.9602 0.91939 4.6367 2.6136 5.948 3.7648l2.3841 2.0932 3.7833-3.9269c5.3065-5.5079 10.635-7.9483 18.138-8.3071 5.9235-0.2832 10.215 0.67268 14.702 3.2749 3.1398 1.8207 8.1759 6.7584 9.776 9.5849l1.3426 2.3717 2.9832-1.5117c10.736-5.4406 21.876-4.501 31.612 2.6662l3.9743 2.9257 1.1632-1.5198c1.1441-1.495 1.1346-1.5404-0.58415-2.7774-2.7923-2.0096-5.8731-5.4397-7.1578-7.9697-2.817-5.5471-2.979-13.047-0.39002-18.053 0.53938-1.043 0.98068-2.0214 0.98068-2.1743 0-0.1528-1.527-1.0249-3.3934-1.9381-5.4418-2.6624-8.5104-5.7242-11.209-11.184-2.2365-4.5253-2.4279-5.3457-2.4279-10.408v-5.4958h-6.1385c-5.8007 0-6.4075-0.13293-11.027-2.4158-7.5164-3.7148-12.879-10.28-14.58-17.851-0.32713-1.456-0.75307-2.8055-0.94652-2.999s-1.5928 0.15017-3.1096 0.76359c-1.5169 0.61344-5.1094 1.2666-7.9833 1.4516-10.009 0.64406-19.089-3.6646-25.381-12.044l-1.6873-2.2471-2.9803 3.3148c-5.5694 6.1945-13.15 10.113-21.798 11.268-7.816 1.044-14.219-0.47138-24.337-5.7602-0.23933-0.12509-1.031 1.1197-1.7594 2.7662-4.6191 10.442-13.968 16.741-26.082 17.572l-5.7838 0.3967-0.39655 3.2487c-1.1806 9.6721-9.4292 19.117-19.126 21.899-1.9872 0.57021-3.6905 1.1028-3.7851 1.1835-0.0945 0.0807 0.29169 1.9564 0.85832 4.1682 2.6101 10.188-3.1228 22.294-12.766 26.956-1.6952 0.81959-2.9827 1.6748-2.8611 1.9005 0.12162 0.22566 1.0451 2.1197 2.0521 4.2091 3.3502 6.9506 2.1132 15.412-3.0502 20.865-1.5961 1.6854-1.8402 2.2432-1.0917 2.4951 2.3349 0.78562 7.0134 6.5605 7.9962 9.87 1.7664 5.9479 1.1007 9.9466-2.5617 15.389l-2.2353 3.3216 2.2563 2.4974c1.241 1.3736 2.2563 2.9534 2.2563 3.5107 0 0.87506 0.59171 0.94072 4.3379 0.48136 2.3858-0.29255 5.5724-0.49625 7.0812-0.45267z" stroke-width=".64265"/>
</svg>
